<svg width="24" height="24" viewBox="0 0 24 24" fill="none" xmlns="http://www.w3.org/2000/svg">
<path fill-rule="evenodd" clip-rule="evenodd" d="M19.5293 4.91509C19.8897 5.27557 19.9175 5.8428 19.6125 6.23509L19.5293 6.3293L13.636 12.222L19.5292 18.1139C19.8897 18.4743 19.9175 19.0416 19.6125 19.4339L19.5293 19.5281C19.1689 19.8886 18.6017 19.9164 18.2094 19.6114L18.1151 19.5283L12.221 13.636L6.32999 19.5286C5.93951 19.9191 5.30635 19.9192 4.91578 19.5287C4.55525 19.1683 4.52746 18.6011 4.83244 18.2087L4.91561 18.1145L10.807 12.221L4.9157 6.32977C4.55521 5.96928 4.52748 5.40205 4.83251 5.00976L4.9157 4.91555C5.27618 4.55507 5.84341 4.52734 6.2357 4.83236L6.32991 4.91555L12.222 10.808L18.1151 4.91509C18.5056 4.52456 19.1387 4.52456 19.5293 4.91509Z" fill="white"/>
</svg>
